<?xml version="1.0" encoding="UTF-8"?>
<!DOCTYPE svg PUBLIC "-//W3C//DTD SVG 1.1//EN" "http://www.w3.org/Graphics/SVG/1.1/DTD/svg11.dtd">
<svg version="1.1" xmlns="http://www.w3.org/2000/svg" xmlns:xlink="http://www.w3.org/1999/xlink" x="0" y="0" width="265.056" height="46.854" viewBox="0, 0, 265.056, 46.854">
  <g id="Layer_1">
    <path d="M16.768,36.404 L11.758,36.404 L11.758,6.633 L16.768,6.633 z" fill="#ED1D2E"/>
    <g>
      <path d="M37.469,13.209 C35.339,13.209 33.555,13.896 32.116,15.257 C30.742,16.554 29.966,18.167 29.781,20.1 L44.673,20.1 C44.673,18.187 44.069,16.588 42.865,15.305 C41.541,13.907 39.74,13.209 37.469,13.209 M49.011,23.506 L29.632,23.506 C29.632,26.638 30.492,29.042 32.217,30.726 C33.735,32.189 35.693,32.92 38.086,32.92 C40.813,32.92 43.085,32.135 44.905,30.547 L46.917,33.959 C46.18,34.698 45.054,35.337 43.536,35.869 C41.626,36.569 39.502,36.924 37.157,36.924 C33.781,36.924 30.912,35.785 28.557,33.501 C25.929,30.996 24.62,27.618 24.62,23.379 C24.62,18.967 25.964,15.434 28.66,12.773 C31.065,10.396 33.916,9.209 37.214,9.209 C41.043,9.209 44.051,10.283 46.227,12.423 C48.331,14.481 49.387,17.218 49.387,20.618 C49.387,21.667 49.263,22.634 49.011,23.506" fill="#ED1D2E"/>
      <path d="M71.919,36.403 L63.441,23.049 L59.275,27.312 L59.275,36.403 L54.483,36.403 L54.483,0.017 L59.275,0.017 L59.275,22.124 L69.526,9.723 L75.14,9.723 L66.528,19.862 L77.082,36.403 z" fill="#ED1D2E"/>
      <path d="M98.186,36.404 L98.186,20.88 C98.186,18.045 97.757,16.057 96.895,14.915 C96.038,13.778 94.599,13.209 92.576,13.209 C91.493,13.209 90.355,13.531 89.166,14.178 C87.987,14.829 87.074,15.625 86.438,16.57 L86.438,36.404 L81.649,36.404 L81.649,9.724 L86.418,9.724 L86.425,13.162 C87.994,10.528 90.566,9.209 94.137,9.209 C100.032,9.209 102.978,12.762 102.978,19.876 L102.978,36.404 z" fill="#ED1D2E"/>
      <path d="M113.073,23.006 C113.073,29.718 115.463,33.067 120.23,33.067 C122.456,33.067 124.206,32.172 125.472,30.372 C126.735,28.575 127.366,26.121 127.366,23.006 C127.366,16.378 124.991,13.059 120.23,13.059 C118.056,13.059 116.316,13.948 115.021,15.711 C113.723,17.473 113.073,19.908 113.073,23.006 M108.06,23.006 C108.06,18.88 109.176,15.55 111.409,13.011 C113.641,10.473 116.59,9.209 120.23,9.209 C124.084,9.209 127.069,10.429 129.195,12.86 C131.321,15.298 132.379,18.682 132.379,23.006 C132.379,27.313 131.291,30.704 129.116,33.192 C126.943,35.678 123.981,36.924 120.23,36.924 C116.4,36.924 113.417,35.667 111.272,33.159 C109.132,30.646 108.06,27.262 108.06,23.006" fill="#ED1D2E"/>
      <path d="M137.785,28.885 L137.785,0.017 L142.574,0.017 L142.574,28.092 C142.574,29.52 142.987,30.646 143.816,31.469 C144.646,32.291 145.729,32.701 147.061,32.701 L147.061,36.924 C140.877,36.924 137.785,34.24 137.785,28.885" fill="#ED1D2E"/>
      <path d="M155.882,23.006 C155.882,29.718 158.273,33.067 163.049,33.067 C165.273,33.067 167.02,32.172 168.285,30.372 C169.546,28.575 170.178,26.121 170.178,23.006 C170.178,16.378 167.802,13.059 163.049,13.059 C160.868,13.059 159.133,13.948 157.835,15.711 C156.538,17.473 155.882,19.908 155.882,23.006 M150.874,23.006 C150.874,18.88 151.99,15.55 154.222,13.011 C156.459,10.473 159.401,9.209 163.049,9.209 C166.895,9.209 169.878,10.429 172.009,12.86 C174.132,15.298 175.195,18.682 175.195,23.006 C175.195,27.313 174.104,30.704 171.928,33.192 C169.753,35.678 166.795,36.924 163.049,36.924 C159.212,36.924 156.227,35.667 154.083,33.159 C151.943,30.646 150.874,27.262 150.874,23.006" fill="#ED1D2E"/>
      <path d="M189.426,12.984 C187.775,12.984 186.42,13.572 185.38,14.747 C184.334,15.919 183.815,17.336 183.815,19.007 C183.815,20.886 184.318,22.435 185.327,23.666 C186.337,24.896 187.702,25.508 189.426,25.508 C191.114,25.508 192.434,24.913 193.383,23.714 C194.337,22.52 194.815,20.95 194.815,19.007 C194.815,17.336 194.3,15.919 193.275,14.747 C192.244,13.572 190.96,12.984 189.426,12.984 M179.247,43.717 L181.841,39.964 C184.623,41.789 187.194,42.706 189.542,42.706 C191.702,42.706 193.413,42.328 194.661,41.591 C195.909,40.856 196.532,39.931 196.532,38.834 C196.532,36.675 194.959,35.586 191.802,35.586 C191.265,35.586 190.29,35.725 188.882,35.998 C187.473,36.27 186.377,36.403 185.582,36.403 C181.758,36.403 179.847,34.976 179.847,32.135 C179.847,31.247 180.298,30.453 181.201,29.742 C182.103,29.029 183.219,28.518 184.555,28.199 C180.764,26.434 178.876,23.367 178.876,19.001 C178.876,16.21 179.854,13.877 181.817,12.008 C183.778,10.142 186.197,9.209 189.083,9.209 C191.731,9.209 193.798,9.751 195.288,10.833 L197.68,8.021 L200.8,10.925 L197.912,13.059 C199.14,14.64 199.753,16.712 199.753,19.262 C199.753,21.963 198.908,24.233 197.218,26.067 C195.526,27.898 193.302,28.948 190.555,29.214 L186.613,29.596 C186.139,29.643 185.501,29.823 184.706,30.128 C183.911,30.429 183.515,30.826 183.515,31.32 C183.515,31.991 184.334,32.324 185.983,32.324 C186.697,32.324 187.822,32.206 189.351,31.956 C190.876,31.712 192.009,31.586 192.747,31.586 C195.395,31.586 197.465,32.214 198.949,33.462 C200.432,34.712 201.174,36.443 201.174,38.666 C201.174,41.109 200.064,43.086 197.842,44.59 C195.62,46.097 192.81,46.854 189.406,46.854 C187.664,46.854 185.825,46.547 183.9,45.938 C181.973,45.329 180.42,44.59 179.247,43.717" fill="#ED1D2E"/>
      <path d="M207.178,4.408 L207.177,0 L211.978,0.013 L211.978,4.408 z M211.978,36.404 L207.189,36.404 L207.189,6.628 L211.978,6.628 z" fill="#ED1D2E"/>
      <path d="M236.983,36.403 L228.507,23.049 L224.337,27.312 L224.337,36.403 L219.549,36.403 L219.549,0.017 L224.337,0.017 L224.337,22.124 L234.588,9.723 L240.206,9.723 L231.593,19.862 L242.147,36.403 z" fill="#ED1D2E"/>
      <path d="M260.26,23.285 C258.76,22.946 257.71,22.771 257.109,22.771 C254.709,22.771 252.749,23.387 251.232,24.625 C249.716,25.869 248.961,27.332 248.961,29.023 C248.961,31.821 250.599,33.217 253.887,33.217 C256.281,33.217 258.411,32.081 260.26,29.808 z M260.712,33.363 C258.807,35.736 255.894,36.924 251.965,36.924 C249.86,36.924 248.033,36.161 246.49,34.643 C244.941,33.117 244.173,31.224 244.173,28.963 C244.173,26.253 245.364,23.963 247.744,22.094 C250.122,20.218 253.161,19.287 256.85,19.287 C257.857,19.287 258.991,19.504 260.26,19.954 C260.26,15.608 258.324,13.429 254.455,13.429 C251.483,13.429 249.197,14.225 247.595,15.801 L245.596,11.874 C246.498,11.142 247.744,10.515 249.342,9.993 C250.939,9.469 252.463,9.208 253.921,9.208 C257.811,9.208 260.643,10.087 262.402,11.847 C264.169,13.606 265.049,16.404 265.049,20.236 L265.049,29.799 C265.049,32.136 265.056,35.917 265.056,36.919 C265.056,36.919 260.945,36.916 260.73,36.916" fill="#ED1D2E"/>
      <path d="M29.061,4.408 L0,4.408 L0,0.008 L29.061,0.008 z" fill="#ED1D2E"/>
    </g>
  </g>
</svg>
